<?xml version="1.0" encoding="UTF-8"?>
<svg id="Layer_1" data-name="Layer 1" xmlns="http://www.w3.org/2000/svg" viewBox="0 0 3577.75 860.07">
  <defs>
    <style>
      .cls-1 {
        stroke-miterlimit: 10;
      }

      .cls-1, .cls-2, .cls-3 {
        fill: none;
        stroke: #fff;
        strokeWidth: 5px;
      }

      .cls-2 {
        strokeLinecap: round;
      }

      .cls-2, .cls-3 {
        strokeLinejoin: round;
      }

      .cls-4 {
        fill: #223969;
      }

      .cls-4, .cls-5 {
        strokeWidth: 0px;
      }

      .cls-5 {
        fill: #3773b9;
      }
    </style>
  </defs>
  <g>
    <path class="cls-5" d="m1909.37,521.87c.46-14.07,3.2-27.55,10.91-39.63,12.68-19.89,32.01-29.77,54.02-35.52,17.93-4.68,36.28-5.96,54.7-6.23,17.67-.26,35.35-.12,53.03,0,3.49.02,4.78-.46,4.17-4.62-2.96-20.29-15.87-33.53-38.18-36.85-32.69-4.87-63.25,1.34-90.87,19.87-3.24,2.17-3.98,1.42-5.44-1.55-9.45-19.32-19-38.59-28.73-57.76-1.64-3.24-1.13-4.68,1.9-6.51,21.61-13.06,45.23-20.54,69.88-25.02,34.2-6.21,68.41-6.74,102.31,1.74,33.74,8.44,60.48,26.14,75.09,58.99.75,1.69,1.28,3.49,2.12,5.13.83,1.6.72,3.64,2.89,5.33,0-17.57,0-34.67,0-51.77q0-8.98,9.14-8.98c8.56,0,17.12-.2,25.67.09,4.03.13,4.97-1.35,4.94-5.11-.15-20.42.05-40.84-.17-61.25-.05-4.44,1.27-5.63,5.65-5.6,28.65.18,57.31.2,85.96-.01,4.6-.03,5.48,1.52,5.44,5.71-.19,20.42,0,40.84-.17,61.25-.03,3.86,1,5.07,4.97,5.02,17.49-.21,34.98.08,52.47-.2,4.74-.08,5.84,1.39,5.79,5.94-.25,20.23-.22,40.47-.02,60.7.04,4.27-.98,5.79-5.55,5.71-16.93-.27-33.87.19-50.79-.27-5.94-.16-6.96,1.78-6.9,7.18.28,26.73.54,53.47.01,80.19-.56,28.83,17.94,40.09,44.53,32.71,3.96-1.1,7.75-2.63,11.2-4.84,2.17-1.39,3.08-.96,3.91,1.42,7.24,20.62,14.5,41.24,21.94,61.79,1.15,3.16-.71,3.85-2.68,4.91-11.41,6.17-23.69,9.75-36.45,11.52-25.68,3.58-51.21,3.26-76.09-4.95-36.42-12.02-56.09-37.88-61.31-75.25-2.63-18.81-1.71-37.77-1.79-56.68-.08-17.63-.12-35.27.06-52.9.04-3.92-1.17-5.12-5.06-5.02-9.3.25-18.6.16-27.91.04-3.17-.04-4.79.23-3.85,4.26,2.92,12.53,3.38,25.36,3.42,38.14.15,47.89,0,95.78.16,143.67.02,4.67-.83,6.35-6.01,6.3-26.23-.29-52.47-.22-78.7-.05-4.19.03-5.87-.8-5.67-5.41.39-9.05.11-18.13.11-27.52-.72.32-1.37.39-1.57.72-12.25,20.46-31.1,30.8-53.97,34.58-22.27,3.68-44.5,3.27-66.24-3.3-25.14-7.6-44.96-21.86-56.02-46.81-.78.53-1.5.8-1.9,1.31-20.39,26.71-47.87,41.8-80.48,47.72-35.25,6.39-70.02,4.21-103.6-8.95-58.54-22.95-91.91-73.54-89.35-136.43,2.16-53.16,27.4-92.83,74.96-116.41,48.3-23.94,98.69-25.96,149.04-5.94,27.62,10.98,48.06,30.43,60.79,57.62,1.96,4.18,1.18,5.92-2.82,7.91-21.94,10.91-43.8,22.01-65.56,33.27-3.45,1.79-4.87,1.43-6.78-1.98-8.9-15.83-21.11-27.96-39.67-31.5-38.96-7.42-68.52,17.21-71.87,52.69-1.37,14.46-.61,28.63,5.33,41.99,8.68,19.51,23.98,30.95,45.16,33.64,23.87,3.03,43-5.46,56.8-25.35,1.06-1.52,2.05-3.09,3.01-4.68,3.91-6.45,3.88-6.41,10.76-2.88,15.03,7.72,30.07,15.41,45.13,23.07,1.44.73,2.76,1.91,4.79,1.64Zm149.43-30.79c-11.8.27-24.9-1.16-37.52,3.26-11.45,4.01-17.53,11.66-18.07,22.81-.54,11.18,5.15,20.42,15.64,25.33,5.12,2.4,10.57,3.37,16.18,3.73,22.86,1.47,41.24-8.63,49.85-27.32,3.53-7.67,1.04-15.75,1.88-23.59.38-3.59-1.26-4.36-4.5-4.28-7.43.19-14.87.06-23.47.06Z"/>
    <path class="cls-5" d="m730.62,425.52c0-56.99.07-113.98-.12-170.97-.02-5.1,1.29-6.43,6.41-6.42,88.94.16,177.88.15,266.82.02,4.46,0,6.02.81,5.95,5.66-.28,22.27-.27,44.55,0,66.83.06,4.65-1.53,5.4-5.69,5.4-55.63-.12-111.27,0-166.9-.21-5.47-.02-6.84,1.48-6.72,6.81.36,15.77.28,31.56.03,47.33-.07,4.34,1.1,5.57,5.53,5.56,48.75-.16,97.5-.02,146.25-.22,4.89-.02,6.22,1.12,6.14,6.09-.31,20.97-.29,41.95-.01,62.93.07,5.04-1.2,6.55-6.42,6.53-48.19-.2-96.38,0-144.57-.27-5.87-.03-7.06,1.71-6.95,7.16.35,16.89.35,33.79,0,50.67-.11,5.31,1.23,6.83,6.71,6.81,57.31-.21,114.62-.13,171.93-.13q7.09,0,7.09,7.28c0,21.72-.1,43.44.09,65.16.04,4.05-.89,5.36-5.2,5.36-91.73-.13-183.46-.14-275.2.03-4.94,0-5.25-1.97-5.24-5.87.09-57.18.06-114.35.06-171.53Z"/>
    <path class="cls-5" d="m1228.38,576.32c-26.68,28.48-59.85,33.28-94.81,30.39-34.94-2.89-64.65-17.54-87.76-44.25-19.19-22.17-29.48-48.31-32.5-77.24-2.94-28.24-.88-56.11,10.85-82.34,21.77-48.68,60.09-74.36,112.99-78.81,20.84-1.75,41.16.63,60.52,9.08,9.57,4.18,17.79,10.39,26.24,18.08v-6.37c0-37.31.07-74.61-.1-111.92-.02-4.4.74-6.01,5.64-5.97,28.65.25,57.3.21,85.95.03,4.2-.03,5.29,1.13,5.29,5.29-.11,121.76-.11,243.52,0,365.27,0,4.07-.94,5.37-5.23,5.34-27.35-.2-54.7-.21-82.04,0-4.36.03-5.31-1.35-5.12-5.35.32-6.61.09-13.25.09-21.23Zm-117.67-109.88c-.18,6.8.7,14.69,2.77,22.45,5.95,22.36,24.32,38.81,46.11,41.28,25.83,2.93,46.99-7.52,58.17-29.31,8.66-16.89,9.26-35.06,6.02-53.23-3.95-22.13-16.04-38.6-38.34-44.73-21.77-5.99-42.19-2.49-58.52,14.6-12.73,13.32-16.41,29.92-16.2,48.95Z"/>
    <path class="cls-4" d="m508.14,579.17c0,3.23,0,5.18,0,7.13,0,36.38-.08,72.75.1,109.13.02,4.42-.81,6.04-5.67,6-28.65-.24-57.3-.18-85.94-.04-3.92.02-5.43-.66-5.43-5.09.14-107.64.11-215.29.11-322.93,0-.54.08-1.08.21-2.85,5.06,5.29,9.58,9.96,14.04,14.68,8.41,8.9,16.69,17.93,25.22,26.72,7.27,7.51,16.68,9.26,24.87,5.02,8.07-4.18,12.1-12.43,10.43-21.39-1.03-5.55-4.38-9.69-8.24-13.54-16.45-16.39-32.88-32.79-49.31-49.2-1.28-1.28-2.48-2.63-3.77-4,1.74-1.47,3.47-.82,5.04-.82,22.88-.05,45.76.06,68.64-.12,4.05-.03,5.59.85,5.34,5.19-.39,6.8-.1,13.64-.1,21.49,3.43-3.25,6.07-5.96,8.92-8.43,14.84-12.85,32.52-19.04,51.69-21.35,35.14-4.23,68.26,1.51,97.7,21.99,32.63,22.69,50.71,54.58,55.99,93.53,4.36,32.13,1.89,63.75-12.78,93.31-20.53,41.36-54.01,65.66-99.77,72.32-25.62,3.73-50.8,1.83-74.44-10.11-8.1-4.09-15.22-9.61-22.85-16.61Zm-1.48-112.17c.13,2.54.26,6.43.58,10.3.18,2.2.65,4.39,1.06,6.57,4.78,25.56,25.29,44.86,49.29,46.39,30,1.92,52.13-12.15,60.64-38.89,4.82-15.16,5.12-30.7,1.53-46.1-4.94-21.2-17.26-36.73-38.73-42.49-21.59-5.8-41.66-2.15-57.83,14.79-12.88,13.49-16.45,30.18-16.53,49.42Z"/>
    <path class="cls-5" d="m1541.42,574.73c-4.68,4.05-8.01,7.21-11.63,10.01-25.25,19.55-54.38,24.85-85.3,22.01-32.12-2.95-59.59-15.46-79.19-42.02-12.8-17.34-18.31-37.44-20.82-58.52-1.94-16.28-1.21-32.62-1.25-48.94-.09-41.21.05-82.42-.13-123.63-.02-4.68,1.33-5.84,5.92-5.8,28.09.21,56.19.24,84.29-.02,5.25-.05,6.92,1.16,6.89,6.65-.23,44.55-.14,89.1-.12,133.66,0,7.99.67,15.91,2.56,23.72,5.39,22.22,21.3,34.22,44.24,33.2,26.2-1.17,44.22-17.67,48.54-44.31,1.1-6.8,1.52-13.64,1.53-20.5.03-42.14.08-84.28-.08-126.42-.02-4.52,1.07-6.02,5.83-5.99,28.65.22,57.31.17,85.96.03,3.76-.02,5.08.81,5.08,4.86-.12,88.36-.11,176.72-.01,265.09,0,3.73-.71,5.1-4.81,5.07-27.54-.19-55.08-.17-82.61-.01-3.98.02-5.09-1.22-4.95-5.05.27-7.19.08-14.4.08-23.1Z"/>
    <path class="cls-4" d="m363.46,328.25c-.28,2.27-2.12,3.13-3.35,4.36-17,17.15-34.11,34.2-51.08,51.39-9.35,9.47-9.63,21.95-.94,30.09,8.37,7.83,21.59,6.72,30.34-2.57,10.82-11.49,21.65-22.97,32.39-34.53,1.36-1.46,2.25-3.35,3.55-5.32,2.33,3.15,1.69,5.06,1.7,6.83.04,72.76-.01,145.52.14,218.28,0,4.73-.89,6.26-6.02,6.21-27.16-.3-54.32-.22-81.49-.05-3.86.02-5.1-.89-4.92-4.85.33-7.57.1-15.17.1-23.06-.71.24-1.27.25-1.56.54-24.63,24.66-54.99,33.27-89,31.62-31.1-1.5-58.55-11.49-79.88-34.99-15.36-16.93-22.57-37.59-25.98-59.78-1.73-11.21-2.21-22.49-2.19-33.82.09-48.07.15-96.15-.11-144.22-.03-5.6,1.64-6.6,6.83-6.55,27.9.26,55.81.3,83.72-.02,5.6-.06,6.58,1.63,6.56,6.82-.16,46.03-.27,92.06.17,138.09.14,14.56,2.52,29.01,13.24,40.24,14.91,15.62,44.87,16.35,62.94,1.92,12.78-10.21,17.88-24.12,19.77-39.68,1.1-9.05,1.04-18.13,1.04-27.22-.02-38.24.01-76.47-.04-114.71,0-3.18-.29-5.47,4.39-5.43,26.04.24,52.09.12,78.14.13.49,0,.97.18,1.55.29Z"/>
  </g>
  <g>
    <rect class="cls-5" x="2704.02" y="522" width="88.94" height="88.94"/>
    <g>
      <g>
        <path class="cls-5" d="m3094.27,557.82h-112.17l-16.63,50.86h-110.74l123.1-336.51h121.67l122.63,336.51h-111.22l-16.63-50.86Zm-25.67-79.37l-30.42-93.63-30.42,93.63h60.84Z"/>
        <path class="cls-5" d="m3341.89,272.17v336.51h-105.51v-336.51h105.51Z"/>
      </g>
      <line class="cls-3" x1="3262.28" y1="272.17" x2="3262.28" y2="368.71"/>
      <polyline class="cls-2" points="3293.79 272.17 3293.2 421.66 3265.69 447.73 3265.09 608.67"/>
      <polyline class="cls-2" points="3324.14 351.08 3324.14 459.77 3291.1 495.6 3291.1 608.67"/>
      <circle class="cls-2" cx="3262.28" cy="376.34" r="8.06"/>
      <circle class="cls-2" cx="3105.87" cy="540.25" r="8.06"/>
      <line class="cls-2" x1="3022.51" y1="272.17" x2="3022.51" y2="342"/>
      <circle class="cls-2" cx="3022.51" cy="352.52" r="8.06"/>
      <line class="cls-2" x1="2995.28" y1="273.93" x2="2995.28" y2="369.87"/>
      <circle class="cls-2" cx="2995.28" cy="380.38" r="8.06"/>
      <line class="cls-1" x1="2869.59" y1="562.12" x2="2955.08" y2="562.12"/>
      <circle class="cls-1" cx="2963.15" cy="562.12" r="8.07"/>
      <line class="cls-1" x1="2892.03" y1="498.66" x2="2939.3" y2="498.66"/>
      <circle class="cls-1" cx="2948.77" cy="498.66" r="7.25"/>
      <circle class="cls-2" cx="3324.59" cy="343.03" r="8.06"/>
      <polyline class="cls-2" points="3113.93 540.25 3126.82 540.25 3168.3 583.11 3214.75 583.11"/>
      <polyline class="cls-2" points="2881.94 532.33 2992.35 532.33 3016.31 508.98 3186.46 506"/>
    </g>
    <path class="cls-4" d="m3524.6,215.86c-107.27,10.96-116.17,19.85-127.13,127.17-4.55-44.43-8.71-71.82-19.68-89.78-15.33-25.25-44.57-31.06-107.45-37.39,107.27-10.93,116.17-19.82,127.13-127.14,10.96,107.32,19.86,116.21,127.13,127.14h0Z"/>
  </g>
  <path class="cls-5" d="m2631.08,361.35c25.62,27.16,38.44,64.32,38.44,111.47,0,7.17-.18,12.48-.51,15.89h-187.57c4.1,13.32,10.84,23.57,20.24,30.75,9.39,7.17,20.76,10.76,34.08,10.76,21.52,0,42.02-8.88,61.5-26.65l53.81,52.79c-14.69,16.4-32.54,28.88-53.55,37.41-21.01,8.54-44.51,12.81-70.47,12.81-30.75,0-57.4-5.89-79.95-17.68-22.55-11.79-39.89-28.35-52.02-49.71-12.13-21.35-18.19-46.2-18.19-74.57s6.15-53.89,18.45-75.59c12.3-21.69,29.55-38.52,51.76-50.48,22.21-11.96,47.83-17.94,76.87-17.94,45.78,0,81.49,13.58,107.11,40.74Zm-75.34,42.79c-7.86-8.88-18.11-13.32-30.75-13.32-11.96,0-21.87,4.28-29.72,12.81-7.86,8.54-13.16,19.99-15.89,34.34h87.63c.34-13.66-3.42-24.94-11.27-33.82Z"/>
</svg>