<svg width="239" height="142" viewBox="0 0 239 142" fill="none" xmlns="http://www.w3.org/2000/svg">
<path d="M158.895 96.0297C158.895 97.2427 158.895 97.9751 158.895 98.7074C158.895 112.37 158.865 126.029 158.932 139.691C158.94 141.351 158.628 141.96 156.802 141.945C146.04 141.854 135.277 141.877 124.519 141.93C123.046 141.937 122.479 141.682 122.479 140.018C122.531 99.5937 122.52 59.1656 122.52 18.7413C122.52 18.5386 122.55 18.3358 122.599 17.671C124.5 19.6577 126.198 21.4115 127.873 23.1841C131.032 26.5265 134.143 29.9177 137.347 33.2188C140.078 36.0392 143.613 36.6964 146.69 35.1041C149.721 33.5343 151.235 30.436 150.608 27.0711C150.221 24.9868 148.962 23.432 147.512 21.9861C141.333 15.8308 135.161 9.6718 128.989 3.50901C128.508 3.0283 128.057 2.52131 127.573 2.0068C128.226 1.45474 128.876 1.69885 129.466 1.69885C138.061 1.68007 146.656 1.72138 155.251 1.65378C156.772 1.64252 157.351 1.973 157.257 3.60289C157.11 6.15664 157.219 8.7254 157.219 11.6735C158.508 10.4529 159.5 9.4352 160.57 8.50759C166.145 3.68176 172.786 1.3571 179.988 0.489575C193.188 -1.09901 205.63 1.05666 216.689 8.74795C228.947 17.2692 235.739 29.2455 237.722 43.8732C239.36 55.9397 238.432 67.8146 232.921 78.9159C225.209 94.4486 212.632 103.575 195.442 106.076C185.818 107.476 176.359 106.763 167.478 102.279C164.436 100.743 161.761 98.6698 158.895 96.041V96.0297ZM158.339 53.9042C158.388 54.8581 158.436 56.319 158.557 57.7723C158.624 58.5986 158.801 59.421 158.955 60.2397C160.75 69.8388 168.455 77.0869 177.471 77.6615C188.741 78.3826 197.054 73.0986 200.251 63.0563C202.061 57.363 202.174 51.5269 200.825 45.7435C198.97 37.7818 194.342 31.9495 186.276 29.7863C178.166 27.6081 170.626 28.9789 164.552 35.3407C159.714 40.4069 158.373 46.6748 158.343 53.9004L158.339 53.9042Z" fill="#223969"/>
<path d="M104.545 1.79656C104.44 2.64906 103.749 2.97203 103.286 3.43395C96.9004 9.87465 90.4729 16.2778 84.098 22.7335C80.5857 26.29 80.4805 30.9769 83.7449 34.0338C86.8892 36.9744 91.8553 36.5575 95.1423 33.0687C99.2069 28.7536 103.275 24.4423 107.31 20.1009C107.821 19.5526 108.155 18.8428 108.643 18.103C109.519 19.286 109.278 20.0033 109.282 20.668C109.297 47.9931 109.278 75.3182 109.335 102.643C109.335 104.42 109 104.994 107.073 104.975C96.8703 104.863 86.6675 104.893 76.461 104.957C75.011 104.964 74.5451 104.622 74.6128 103.135C74.7367 100.292 74.6503 97.4381 74.6503 94.475C74.3836 94.5651 74.1732 94.5689 74.0643 94.6778C64.8119 103.939 53.407 107.172 40.631 106.553C28.9481 105.989 18.6364 102.238 10.6237 93.4122C4.85361 87.0541 2.14514 79.2952 0.864154 70.9618C0.21427 66.7518 0.033955 62.5156 0.0414681 58.2606C0.0752771 40.2079 0.097819 22.1514 0.000148691 4.09869C-0.011121 1.9956 0.616221 1.62004 2.56587 1.63882C13.0466 1.73646 23.5312 1.75149 34.0157 1.63131C36.1194 1.60878 36.4875 2.24346 36.48 4.19257C36.4199 21.4792 36.3786 38.7658 36.5439 56.0524C36.5965 61.5204 37.4905 66.9471 41.5175 71.1646C47.1186 77.0307 58.3732 77.3048 65.1613 71.8856C69.9621 68.0512 71.878 62.8273 72.588 56.9838C73.0012 53.585 72.9787 50.175 72.9787 46.7613C72.9711 32.4002 72.9824 18.0429 72.9636 3.68182C72.9636 2.48757 72.8547 1.62756 74.6128 1.64258C84.3948 1.73271 94.1806 1.68765 103.966 1.6914C104.151 1.6914 104.331 1.75901 104.549 1.80032L104.545 1.79656Z" fill="#223969"/>
</svg>
