<?xml version="1.0" encoding="utf-8"?>
<!-- Generator: Adobe Illustrator 27.5.0, SVG Export Plug-In . SVG Version: 6.00 Build 0)  -->
<svg version="1.1" xmlns="http://www.w3.org/2000/svg" xmlns:xlink="http://www.w3.org/1999/xlink" x="0px" y="0px"
	 viewBox="0 0 3000 2000" style="enable-background:new 0 0 3000 2000;" xml:space="preserve">
<g id="BACKGROUND">
	<rect style="fill:#FFFFFF;" width="3000" height="2000"/>
</g>
<g id="OBJECTS">
	<g>
		<g>
			<path style="opacity:0.3;fill:#EBEBFF;" d="M1935.142,1715.661c8.509-5.02,16.933-10.199,25.264-15.551
				c106.16-68.2,197.258-168.68,227.344-291.22s-12.968-266.903-120.765-332.485c-93.721-57.018-213.716-46.337-319.274-16.465
				c-105.557,29.872-207.239,77.09-316.358,88.396c-129.237,13.391-267.801-23.332-385.171,32.398
				c-130.27,61.855-188.992,230.885-146.785,368.779c19.347,63.209,56.299,118.894,104.033,164.395L1935.142,1715.661z"/>
			<path style="opacity:0.6;fill:#9192FF;" d="M1124.346,1715.129l-0.393-0.25c-8.324-5.285-16.563-10.746-24.486-16.234
				c-115.721-80.074-194.012-188.18-220.451-304.406c-31.102-136.715,18.375-283.195,117.643-348.293
				c77.355-50.727,181.723-56.611,310.199-17.484c33.41,10.176,66.939,22.473,99.365,34.367
				c66.605,24.434,135.477,49.695,206.344,57.578c43.863,4.871,89.582,3.285,133.797,1.738
				c81.316-2.84,165.398-5.773,239.344,32.035c121.547,62.145,185.535,235.387,142.645,386.184
				c-18.516,65.094-56.176,116.594-125.926,172.203l-0.434,0.344l-0.555,0.004L1124.346,1715.129z M1153.137,1006.125
				c-59.811,0-111.553,14.168-154.732,42.484c-98.195,64.395-147.1,209.457-116.283,344.926
				c26.264,115.441,104.096,222.871,219.158,302.492c7.766,5.375,15.834,10.727,23.988,15.914l875.607-2.211
				c68.914-55.035,106.133-105.969,124.414-170.242c42.496-149.406-20.773-320.984-141.035-382.473
				c-73.207-37.426-156.867-34.496-237.781-31.688c-44.328,1.551-90.16,3.152-134.258-1.758
				c-71.25-7.922-140.307-33.254-207.088-57.75c-32.385-11.879-65.873-24.164-99.199-34.313
				C1250.354,1014.582,1199.336,1006.125,1153.137,1006.125z"/>
		</g>
		<g>
			<g>
				<path style="fill:#3335CF;" d="M2329.042,1646.929c-31.305,0-56.771-23.789-56.771-53.033s25.465-53.033,56.771-53.033
					s56.775,23.789,56.775,53.033S2360.348,1646.929,2329.042,1646.929z M2329.042,1560.632c-20.4,0-37.001,14.921-37.001,33.263
					s16.601,33.263,37.001,33.263c20.404,0,37.005-14.921,37.005-33.263S2349.447,1560.632,2329.042,1560.632z"/>
			</g>
			<g>
				<polygon style="fill:#FFFFFF;" points="2309.032,1712.583 2184.789,1712.583 2163.551,1497.017 2330.27,1497.017 				"/>
				<path style="fill:#3335CF;" d="M2310.957,1714.707h-128.094l-21.656-219.816h171.406L2310.957,1714.707z M2186.715,1710.457
					h120.391l20.82-211.316h-162.031L2186.715,1710.457z"/>
			</g>
			<polygon style="fill:#EBEBFF;" points="2287.418,1694.667 2206.403,1694.667 2192.554,1559.533 2301.267,1559.533 			"/>
		</g>
		<g>
			<path style="fill:#9192FF;" d="M740.184,855.256h-23.027v-4.246h23.027c5.225,0,10.33-0.918,15.176-2.727l1.484,3.98
				C751.523,854.25,745.918,855.256,740.184,855.256z M694.131,855.256h-23.027v-4.246h23.027V855.256z M648.078,855.256h-23.027
				v-4.246h23.027V855.256z M602.025,855.256h-23.027v-4.246h23.027V855.256z M555.971,855.256h-23.025v-4.246h23.025V855.256z
				 M509.918,855.256h-23.025v-4.246h23.025V855.256z M463.865,855.256h-23.027v-4.246h23.027V855.256z M417.813,855.256h-23.027
				v-4.246h23.027V855.256z M371.76,855.256h-23.027v-4.246h23.027V855.256z M325.707,855.256H302.68v-4.246h23.027V855.256z
				 M279.303,851.588c-7.414-3.098-13.984-8.076-19-14.398l3.328-2.641c4.57,5.762,10.555,10.299,17.309,13.121L279.303,851.588z
				 M776.385,838.604l-3.227-2.766c4.789-5.584,8.096-12.324,9.563-19.492l4.16,0.852
				C785.271,825.07,781.641,832.473,776.385,838.604z M250.639,815.396c-0.424-2.57-0.637-5.197-0.635-7.809V792.06h4.246v15.529
				c-0.002,2.381,0.193,4.773,0.58,7.115L250.639,815.396z M787.85,793.813h-4.246v-23.027h4.246V793.813z M254.25,769.033h-4.246
				v-23.025h4.246V769.033z M787.85,747.758h-4.246v-23.025h4.246V747.758z M254.25,722.981h-4.246v-23.027h4.246V722.981z
				 M787.85,701.705h-4.246V678.68h4.246V701.705z M254.25,676.928h-4.246V653.9h4.246V676.928z M787.85,655.652h-4.246v-23.025
				h4.246V655.652z M254.25,630.875h-4.246v-23.027h4.246V630.875z M787.85,609.6h-4.246v-23.027h4.246V609.6z M254.25,584.822
				h-4.246v-23.027h4.246V584.822z M787.85,563.547h-4.246V540.52h4.246V563.547z M254.25,538.768h-4.246v-23.025h4.246V538.768z
				 M787.85,517.494h-4.246v-23.027h4.246V517.494z M254.25,492.715h-4.246v-5.646c0-6.135,1.148-12.108,3.416-17.752l3.941,1.582
				c-2.064,5.141-3.111,10.58-3.111,16.17V492.715z M781.084,472.463c-2.459-6.891-6.678-13.104-12.195-17.971l2.809-3.188
				c6.057,5.342,10.685,12.164,13.387,19.728L781.084,472.463z M270.238,453.41l-2.688-3.289c6.252-5.105,13.74-8.551,21.654-9.969
				l0.75,4.18C282.75,445.623,275.932,448.762,270.238,453.41z M749.533,444.658c-3.051-0.67-6.195-1.01-9.35-1.01h-13.141v-4.246
				h13.141c3.459,0,6.912,0.371,10.26,1.107L749.533,444.658z M704.016,443.648h-23.027v-4.246h23.027V443.648z M657.963,443.648
				h-23.027v-4.246h23.027V443.648z M611.91,443.648h-23.027v-4.246h23.027V443.648z M565.856,443.648H542.83v-4.246h23.025V443.648
				z M519.803,443.648h-23.025v-4.246h23.025V443.648z M473.75,443.648h-23.025v-4.246h23.025V443.648z M427.697,443.648H404.67
				v-4.246h23.027V443.648z M381.645,443.648h-23.027v-4.246h23.027V443.648z M335.592,443.648h-23.027v-4.246h23.027V443.648z"/>
			<path style="fill:#9192FF;" d="M879.395,960.907H386.386c-28.023,0-50.74-22.717-50.74-50.74V553.073
				c0-28.023,22.717-50.74,50.74-50.74h493.009c28.023,0,50.74,22.717,50.74,50.74v357.094
				C930.135,938.19,907.418,960.907,879.395,960.907z"/>
			<g>
				<rect x="388.021" y="638.466" style="fill:#FFFFFF;" width="58.016" height="278.237"/>
				<rect x="495.952" y="687.435" style="fill:#FFFFFF;" width="58.016" height="229.268"/>
				<rect x="603.883" y="730.257" style="fill:#FFFFFF;" width="58.016" height="186.446"/>
				<rect x="711.813" y="760.464" style="fill:#FFFFFF;" width="58.016" height="156.239"/>
				<rect x="819.745" y="849.554" style="fill:#FFFFFF;" width="58.016" height="67.149"/>
			</g>
			<rect x="488.975" y="565.549" style="fill:#FFFFFF;" width="287.832" height="24.945"/>
		</g>
		<g>
			<path style="fill:#1B1B43;" d="M1442.837,416.754c-30.013,13.894-69.965,36.252-62.366,75.998
				c7.455,38.991,54.51,31.954,81.98,22.634c20.349-6.903,40.002-16.181,58.099-27.784c11.752-7.535,28.279-20.551,24.268-36.69
				c-3.446-13.863-19.53-17.915-31.891-15.376c-17.93,3.684-38.394,14.599-52.439,26.113
				c-12.747,10.449-22.678,26.719-20.179,43.783c2.284,15.597,15.158,26.715,29.486,31.608c17.856,6.098,42.079,4.848,60.033-0.602
				c10.909-3.311,20.996-13.192,13.858-25.006c-8.45-13.985-25.987-10.603-38.147-4.446c-16.414,8.311-35.846,19.169-43.963,36.594
				c-6.163,13.231-5.185,29.638,6.806,39.22c11.747,9.388,28.701,9.424,42.932,8.338c11.781-0.899,31.012-3.36,32.882-18.215
				c1.887-14.983-16.535-21.795-28.241-17.372c-18.134,6.852-29.494,29.21-34.99,46.525c-6.493,20.456-6.384,42.342-0.071,62.802
				c0.804,2.604,4.905,1.493,4.096-1.129c-8.214-26.619-5.361-55.866,8.692-80.054c6.732-11.587,19.995-29.903,35.837-24.778
				c8.459,2.737,14.458,12.752,6.959,20.292c-5.269,5.298-14.152,6.589-21.226,7.345c-10.269,1.098-21.306,1.539-31.397-1.057
				c-17.412-4.481-26.071-20.227-19.591-37.414c5.285-14.019,18.235-22.821,30.569-30.182c11.722-6.995,35.092-21.634,45.185-4.325
				c11.305,19.388-25.471,21.444-35.565,22.206c-14.832,1.12-30.535,0.586-43.511-7.579c-13.734-8.641-19.875-23.57-14.885-39.221
				c5.02-15.743,18.093-26.233,32.053-33.947c10.891-6.018,23.656-13.032,35.947-15.403c8.664-1.671,19.599-0.303,24.764,7.921
				c6.18,9.841-1.188,20.584-8.321,27.3c-19.974,18.807-50.141,30.69-75.943,38.626c-26.88,8.268-70.973,10.055-70.588-29.505
				c0.333-34.214,34.173-51.128,61.012-63.553C1447.459,419.275,1445.304,415.613,1442.837,416.754L1442.837,416.754z"/>
			<path style="fill:#FFA121;" d="M1134.312,617.064c6.881,14.475,13.143,29.17,19.235,43.926l8.915,22.213l8.548,22.343
				l-12.756-3.754l21.414-16.803c7.148-5.588,14.443-10.985,21.658-16.486l8.725-6.654l4.032,10.089
				c2.902,7.261,5.592,14.609,8.399,21.909c2.78,7.311,5.354,14.706,8.042,22.055c2.528,7.414,5.168,14.783,7.547,22.258
				c2.465,7.44,4.766,14.947,6.922,22.513l-6.147,2.514c-3.765-6.908-7.384-13.876-10.84-20.911
				c-3.542-6.999-6.823-14.106-10.215-21.166c-3.233-7.126-6.58-14.205-9.72-21.369c-3.114-7.174-6.344-14.302-9.363-21.515
				l12.756,3.435c-7.161,5.572-14.24,11.248-21.467,16.733l-21.711,16.417l-9.219,6.971l-3.538-10.725l-7.494-22.719l-7.127-22.849
				c-4.603-15.286-9.037-30.632-12.85-46.199L1134.312,617.064z"/>
			<path style="fill:#FFA121;" d="M1739.894,663.891c-3.813,15.567-8.247,30.913-12.85,46.199l-7.127,22.849l-7.494,22.719
				l-3.538,10.726l-9.219-6.971l-21.711-16.417c-7.227-5.485-14.307-11.162-21.468-16.733l12.756-3.435
				c-3.019,7.213-6.249,14.341-9.363,21.515c-3.141,7.164-6.487,14.243-9.72,21.369c-3.392,7.061-6.673,14.167-10.215,21.166
				c-3.455,7.035-7.075,14.003-10.839,20.911l-6.147-2.514c2.156-7.567,4.457-15.073,6.922-22.513
				c2.379-7.475,5.018-14.844,7.547-22.258c2.687-7.349,5.262-14.744,8.042-22.055c2.807-7.3,5.497-14.648,8.399-21.909
				l4.032-10.089l8.725,6.654c7.214,5.502,14.51,10.899,21.658,16.486l21.414,16.803l-12.756,3.754l8.548-22.343l8.915-22.213
				c6.092-14.756,12.353-29.451,19.235-43.926L1739.894,663.891z"/>
		</g>
		<g>
			<g>
				<g>
					<defs>
						<path id="SVGID_1_" d="M1926.163,871.332c0,23.134,18.754,41.888,41.888,41.888h643.012c23.134,0,41.889-18.754,41.889-41.888
							V491.29h-726.789V871.332z"/>
					</defs>
					<clipPath id="SVGID_00000043433386414311715900000015673164570922978217_">
						<use xlink:href="#SVGID_1_"  style="overflow:visible;"/>
					</clipPath>
					<path style="clip-path:url(#SVGID_00000043433386414311715900000015673164570922978217_);fill:#FFFFFF;" d="M1926.163,871.332
						c0,23.134,18.754,41.888,41.888,41.888h643.012c23.134,0,41.889-18.754,41.889-41.888V491.29h-726.789V871.332z"/>
					<g style="clip-path:url(#SVGID_00000043433386414311715900000015673164570922978217_);">
						<path style="opacity:0.6;fill:#D1D1FF;" d="M1856.999,637.643c3.43-30.921,30.985-57.39,62.019-59.574
							c31.034-2.184,62.025,20.164,69.752,50.3c14.773-4.574,32.035,0.352,42.168,12.034c10.133,11.682,12.571,29.467,5.955,43.446
							c30.891,4.876,51.254,43.171,38.022,71.508c20.988-5.572,44.344-1.448,62.156,10.974
							c17.811,12.422,29.751,32.915,31.774,54.536c8.372-29.157,38.162-50.638,68.471-49.375
							c30.308,1.264,58.207,25.151,64.124,54.903c92.122-140.093,333.99-99.556,402.902,55.833l-99.99,254.029l-593.184,13.512
							l-267.541-304.024L1856.999,637.643z"/>
						<path style="fill:#FFFFFF;" d="M1845.843,716.285c21.703-16.214,45.198-30.999,71.523-37.396
							c26.325-6.397,56.058-3.354,77.383,13.354c21.325,16.709,31.249,48.656,18.342,72.474
							c18.359-1.642,37.254,8.249,46.367,24.271c9.113,16.022,7.957,37.318-2.838,52.258c18.576-9.301,41.288-9.906,60.332-1.606
							c19.044,8.3,34.063,25.348,39.895,45.287c26.515-22.234,71.499-16.773,91.923,11.16
							c44.028-41.901,111.32-65.005,167.155-40.99c32.386,13.93,57.156,41.84,73.925,72.851
							c16.769,31.011,26.395,65.288,35.891,99.239l-503.764,45.563l-210.79-67.561L1845.843,716.285z"/>
						<path style="fill:#FFF2E0;" d="M2371.251,581.697c-14.962-6.232-30.443-6.998-43.209-3.249
							c-7.992-9.967-20.251-16.364-34.021-16.364c-24.084,0-43.608,19.524-43.608,43.608c0,6.269,1.348,12.215,3.729,17.603
							c-8.494,5.756-14.077,15.484-14.077,26.517c0,15.471,10.975,28.378,25.564,31.361c-0.256,1.91-0.433,3.844-0.433,5.824
							c0,24.084,19.524,43.608,43.608,43.608c20.621,0,37.857-14.33,42.399-33.564c4.589,2.542,9.863,3.999,15.48,3.999
							c17.679,0,32.01-14.332,32.01-32.01c0-4.075-0.791-7.958-2.179-11.542c4.52-3.674,8.102-8.264,10.369-13.707
							C2416.145,621.547,2400.191,593.752,2371.251,581.697z"/>
						<path style="fill:#FFF2E0;" d="M2192.767,558.044c-7.534-3.138-15.329-3.524-21.757-1.636
							c-4.024-5.019-10.197-8.24-17.13-8.24c-12.127,0-21.958,9.831-21.958,21.958c0,3.157,0.678,6.151,1.878,8.863
							c-4.277,2.898-7.088,7.796-7.088,13.352c0,7.79,5.526,14.289,12.872,15.791c-0.129,0.962-0.218,1.936-0.218,2.932
							c0,12.127,9.831,21.958,21.958,21.958c10.383,0,19.062-7.216,21.349-16.9c2.311,1.28,4.966,2.013,7.795,2.013
							c8.902,0,16.118-7.216,16.118-16.118c0-2.052-0.398-4.007-1.097-5.812c2.276-1.85,4.08-4.161,5.221-6.902
							C2215.372,578.109,2207.339,564.114,2192.767,558.044z"/>
						<path style="fill:#D1D1FF;" d="M2065.45,544.997c1.117,3.999,0.537,8.381-2.78,12.485c-7.802,9.654-21.613,5.358-25.084-5.543
							c-1.353-4.252-1.99-8.918-0.576-13.152C2042.012,523.803,2061.969,532.539,2065.45,544.997z"/>
						<path style="fill:#D1D1FF;" d="M2195.843,710.969c0.71,2.539,0.341,5.323-1.765,7.929c-4.955,6.131-13.726,3.403-15.93-3.52
							c-0.859-2.7-1.264-5.663-0.366-8.352C2180.958,697.509,2193.632,703.057,2195.843,710.969z"/>
						<path style="fill:#D1D1FF;" d="M2499.03,592.046c0.71,2.54,0.341,5.323-1.765,7.929c-4.955,6.131-13.726,3.403-15.93-3.52
							c-0.859-2.7-1.264-5.663-0.366-8.352C2484.145,578.586,2496.819,584.135,2499.03,592.046z"/>
					</g>
				</g>
				<path style="fill:#9192FF;" d="M2611.063,915.344h-643.012c-24.266,0-44.012-19.744-44.012-44.012V489.166h731.039v382.166
					C2655.078,895.6,2635.332,915.344,2611.063,915.344z M1928.289,493.412v377.92c0,21.926,17.836,39.766,39.762,39.766h643.012
					c21.926,0,39.766-17.84,39.766-39.766v-377.92H1928.289z"/>
				<g>
					<g>
						<path style="fill:#FFFFFF;" d="M2611.063,327.734h-643.012c-23.134,0-41.888,18.754-41.888,41.888V491.29h726.789V369.623
							C2652.952,346.488,2634.198,327.734,2611.063,327.734z"/>
						<path style="fill:#9192FF;" d="M2655.078,493.412h-731.039V369.623c0-24.269,19.746-44.012,44.012-44.012h643.012
							c24.27,0,44.016,19.742,44.016,44.012V493.412z M1928.289,489.166h722.539V369.623c0-21.926-17.84-39.766-39.766-39.766
							h-643.012c-21.926,0-39.762,17.84-39.762,39.766V489.166z"/>
					</g>
					<circle style="fill:#D1D1FF;" cx="2024.796" cy="409.512" r="30.441"/>
					<g>
						<path style="fill:#FFFFFF;" d="M2470.088,436.414h-338.394c-14.857,0-26.902-12.044-26.902-26.902l0,0
							c0-14.857,12.044-26.902,26.902-26.902h338.394c14.857,0,26.901,12.044,26.901,26.902l0,0
							C2496.99,424.369,2484.946,436.414,2470.088,436.414z"/>
						<path style="fill:#9192FF;" d="M2470.09,438.537h-338.395c-16.004,0-29.027-13.02-29.027-29.025
							c0-16.006,13.023-29.025,29.027-29.025h338.395c16.004,0,29.023,13.02,29.023,29.025
							C2499.113,425.518,2486.094,438.537,2470.09,438.537z M2131.695,384.732c-13.664,0-24.777,11.117-24.777,24.779
							c0,13.662,11.113,24.779,24.777,24.779h338.395c13.66,0,24.773-11.117,24.773-24.779c0-13.662-11.113-24.779-24.773-24.779
							H2131.695z"/>
					</g>
				</g>
			</g>
			<g>
				<g>
					<path style="fill:#FFA121;" d="M2448.85,690.074c0,0-61.005-57.416-122.009-58.612l44.258,29.904l-82.536-15.55l76.555,38.277
						l-89.713,5.981c48.063,8.521,90.53,30.592,125.598,70.574L2448.85,690.074z"/>
					<path style="opacity:0.6;fill:#FFFFFF;" d="M2443.594,716.018c0,0-25.669-42.93-57.84-49.477l19.982,23.541l-41.914-17.874
						l36.118,32.016l-48.204-4.619c24.469,10.062,44.408,28.364,58.357,57.558L2443.594,716.018z"/>
				</g>
				<g>
					<g>
						<path style="fill:#3335CF;" d="M2669.264,822.869c-32.62-57.084-12.304-132.642-43.691-152.019l-62.308,77.156
							L2669.264,822.869z"/>
						<path style="fill:#C5C5FF;" d="M2625.573,670.85l-8.063-0.865c-8.587-0.921-17.158,1.876-23.549,7.685l-52.683,47.888
							l21.987,22.448L2625.573,670.85z"/>
					</g>
					<g>
						<path style="fill:#3335CF;" d="M2577.049,937.058c-62.672-19.87-132.259,15.897-157.81-10.706l62.309-77.156L2577.049,937.058
							z"/>
						<path style="fill:#C5C5FF;" d="M2419.239,926.351l-2.543-7.7c-2.708-8.201-1.778-17.169,2.555-24.64l35.723-61.584
							l26.573,16.768L2419.239,926.351z"/>
					</g>
					<polygon style="fill:#1B1B43;" points="2733.998,969.86 2711.334,906.251 2667.042,961.097 					"/>
					<path style="fill:#C5C5FF;" d="M2422.783,785.732c45.713,97.77,129.898,174.188,244.278,175.342l44.273-54.823
						c-25.209-111.574-117.639-177.783-222.841-201.887L2422.783,785.732z"/>
					<polygon style="fill:#3335CF;" points="2488.493,704.364 2464.199,668.549 2382.637,769.546 2422.783,785.732 					"/>
					<path style="fill:#1B1B43;" d="M2398.977,699.31L2398.977,699.31c3.199-3.962,9.004-4.58,12.966-1.38l83.091,67.102
						c3.962,3.199,4.58,9.005,1.38,12.966h0c-3.199,3.962-9.004,4.58-12.966,1.38l-83.091-67.102
						C2396.396,709.077,2395.778,703.271,2398.977,699.31z"/>
					
						<ellipse transform="matrix(0.0269 -0.9996 0.9996 0.0269 1672.906 3481.3752)" style="fill:#FFFFFF;" cx="2624.549" cy="881.454" rx="38.674" ry="38.674"/>
					
						<ellipse transform="matrix(0.9944 -0.1059 0.1059 0.9944 -78.5648 282.7935)" style="fill:#1B1B43;" cx="2624.549" cy="881.454" rx="23.627" ry="23.627"/>
					<path style="fill:#FFFFFF;" d="M2634.233,882.353c-1.857-1.5-2.147-4.221-0.647-6.078c1.5-1.857,4.221-2.147,6.078-0.647
						c1.857,1.5,2.147,4.221,0.647,6.078C2638.812,883.563,2636.09,883.853,2634.233,882.353z"/>
				</g>
			</g>
		</g>
		<g>
			<g>
				<path style="fill:#3335CF;" d="M1628.011,1102.701l-147.605-8.963l-192.587,50.887
					c-67.537,17.84-122.374,67.112-147.265,132.356l-120.335,315.131l236.465-209.535l65.13,329.899l441.753-1.416l-1.416-458.035
					L1628.011,1102.701z"/>
				<path style="fill:#C5C5FF;" d="M1510.25,1273.715c-26.75,0-51.729-10.418-68.252-28.828l3.16-2.836
					c17.682,19.699,45.635,29.805,74.732,26.945c31.188-3.027,58.441-20.469,74.777-47.855l3.648,2.18
					c-17.035,28.555-45.469,46.746-78.012,49.906C1516.934,1273.551,1513.574,1273.715,1510.25,1273.715z"/>
			</g>
			<g>
				<path style="fill:#FFBC96;" d="M1528.616,1216.07c-28.289,13.677-63.035,0.17-77.264-30.073l-4.8-10.237l-48.678-103.43
					l-29.776-63.332l143.867-69.534l62.653,133.12C1600.359,1127.337,1579.843,1191.306,1528.616,1216.07z"/>
				<path style="fill:#1B1B43;" d="M1525.685,1045.613c-12.658,61.676-44.303,103.94-79.133,130.147l-48.678-103.43
					L1525.685,1045.613z"/>
				<path style="fill:#FFBC96;" d="M1542.559,968.433c0,74.482-41.995,125.539-95.263,151.858
					c-54.818,27.085-112.058-76.979-139.399-146.549c-28.378-72.21,49.745-126.367,115.148-126.367
					C1488.448,847.376,1542.559,893.951,1542.559,968.433z"/>
				<path style="fill:#1B1B43;" d="M1545.522,925.957c-6.371-76.457-21.911-148.733-92.74-130.26
					c-26.901-37.521-139.464-36.813-167.073,52.387c-17.811,57.544-75.041,85.66-75.041,85.66
					c68.67,36.105,131.974,22.583,220.169-44.6c27.609,40.352,106.19,43.184,106.19,43.184L1545.522,925.957z"/>
				
					<ellipse transform="matrix(0.1272 -0.9919 0.9919 0.1272 388.4773 2356.5913)" style="fill:#FFBC96;" cx="1533.334" cy="957.55" rx="44.069" ry="34.451"/>
				<path style="fill:#1B1B43;" d="M1540.201,939.307c-4.574,3.772-6.076,8.884-6.028,14.347c0.034,2.705,0.463,5.449,1.251,8.062
					c0.829,2.611,1.944,5.077,3.828,7.243l-1.263,2.147c-3.496-1.147-6.107-4.091-7.715-7.201c-1.643-3.159-2.441-6.68-2.442-10.234
					c0.026-3.537,0.823-7.206,2.797-10.341c1.908-3.145,5.102-5.583,8.535-6.286L1540.201,939.307z"/>
				<g>
					
						<ellipse transform="matrix(0.9978 -0.0662 0.0662 0.9978 -62.0946 96.1797)" style="fill:#1B1B43;" cx="1420.781" cy="985.406" rx="10.739" ry="12.035"/>
					
						<ellipse transform="matrix(0.9327 -0.3608 0.3608 0.9327 -271.3976 560.0755)" style="fill:#1B1B43;" cx="1364.431" cy="1006.961" rx="9.745" ry="10.921"/>
					<path style="fill:#1B1B43;" d="M1449.896,954.341c0.223,3.367-17.663,2.285-25.349,3.908
						c-6.562,1.386-16.556,7.778-21.062,1.397c-4.064-5.756,6.147-12.284,18.799-13.123
						C1434.937,945.684,1449.672,950.974,1449.896,954.341z"/>
					<path style="fill:#1B1B43;" d="M1334.61,991.358c2.01,2.758,11.142-6.731,16.388-9.165c4.479-2.078,14.014-1.873,12.445-9.071
						c-1.415-6.492-11.154-6.699-18.63-1.25C1337.336,977.321,1332.599,988.6,1334.61,991.358z"/>
					<path style="fill:#1B1B43;" d="M1406.224,1067.158c4.093-4.927,9.938-8.121,15.862-10.116
						c5.987-1.961,12.143-2.821,18.357-2.366l0.458,2.448c-5.639,2.676-11.354,4.167-16.852,5.948
						c-5.546,1.715-10.757,3.756-16.334,6.081L1406.224,1067.158z"/>
					<path style="fill:#D28572;" d="M1390.123,1013.809c0.312,4.625-0.373,9.554-2.762,14.055c-1.151,2.245-2.809,4.272-4.486,5.961
						c-1.649,1.691-3.322,3.106-3.718,4.118c-0.128,0.514-0.354,0.913-0.239,1.676c-0.026,0.462,0.101,0.487,0.074,0.563
						c0.014,0.114,0.193,0.267,0.303,0.466c0.788,0.892,2.66,1.799,4.532,2.489c3.864,1.375,8.234,2.302,12.538,3.324l-0.059,2.49
						c-4.639,0.627-9.25,0.598-14.03-0.438c-2.385-0.592-4.861-1.281-7.376-3.472c-0.579-0.655-1.21-1.351-1.607-2.264
						c-0.411-0.98-0.677-2.009-0.667-2.688c-0.223-1.47,0.084-3.336,0.806-4.874c1.652-3.035,3.718-4.377,5.241-5.8
						c1.589-1.377,2.877-2.78,4.04-4.374c2.297-3.193,3.734-7.211,4.931-11.478L1390.123,1013.809z"/>
					
						<ellipse transform="matrix(0.0122 -0.9999 0.9999 0.0122 458.0607 2469.2258)" style="opacity:0.2;fill:#FE5B52;" cx="1478.847" cy="1002.762" rx="27.165" ry="27.165"/>
				</g>
			</g>
			<path style="fill:#3335CF;" d="M1874.075,1256.592c-41.967-88.265-128.575-146.713-226.143-152.66l-19.921-1.232l146.933,334.583
				l160.827-59.701L1874.075,1256.592z"/>
			<g>
				<path style="fill:#FFBC96;" d="M1360.751,1038.525c-1.593-24.424,2.655-81.767-12.212-75.395s-18.584,89.194-18.584,89.194
					s-2.124-138.048-18.052-131.676c-15.929,6.372-15.929,106.191-50.971,212.381l-196.81,415.646
					c-23.675,49.999,6.15,108.904,60.463,119.416h0c39.838,7.71,79.537-13.914,94.686-51.557
					c50.974-126.659,144.603-399.999,153.692-453.234c7.433-43.538,5.515-62.366,2.642-73.561
					C1370.857,1071.239,1361.994,1057.583,1360.751,1038.525z"/>
				<path style="fill:#D28572;" d="M1262.167,1123.843c6.022-16.375,9.96-33.49,13.627-50.589
					c3.612-17.13,6.649-34.385,9.769-51.631l9.23-51.807c1.625-8.63,3.311-17.255,5.33-25.847c1.016-4.295,2.109-8.582,3.47-12.847
					c0.695-2.132,1.443-4.258,2.417-6.378c0.475-1.059,1.053-2.12,1.758-3.18c0.766-1.004,1.594-2.274,3.658-2.916l-0.156,0.043
					c0.611-0.122,1.266-0.192,1.893-0.2c0.594,0.092,1.178,0.316,1.741,0.536c0.897,0.536,1.754,1.221,2.222,1.895
					c1.158,1.363,1.805,2.751,2.442,4.136c1.221,2.774,2.101,5.563,2.831,8.362c1.488,5.597,2.532,11.225,3.44,16.863
					c1.774,11.279,2.987,22.597,3.934,33.928c1.838,22.665,2.819,45.378,2.598,68.14l-4.832-0.104
					c0.531-12.853,1.496-25.609,2.954-38.374c1.546-12.742,3.328-25.506,7.339-38.005c1.098-3.107,2.302-6.211,4.147-9.181
					c0.974-1.463,2.06-2.939,3.68-4.137c1.529-1.292,3.917-1.909,6.101-1.612c0.512,0.116,0.994,0.304,1.49,0.469
					c0.51,0.221,0.919,0.213,1.563,0.779c0.293,0.233,0.575,0.485,0.835,0.746c0.229,0.25,0.307,0.446,0.465,0.674
					c0.253,0.432,0.602,0.913,0.749,1.318c0.752,1.68,1.235,3.299,1.645,4.915c0.834,3.229,1.314,6.432,1.782,9.643
					c1.658,12.833,2.096,25.678,1.988,38.511c-0.041,6.472-0.448,12.752,0.111,18.973c0.506,6.243,1.646,12.43,3.256,18.516
					c1.622,6.085,3.678,12.073,5.925,18.012c2.299,5.881,4.604,12.111,5.891,18.45c2.738,12.707,3.039,25.767,1.864,38.563
					c-1.188,12.815-3.688,25.445-7.033,37.808l-1.842-0.481c3.095-12.341,5.334-24.898,6.269-37.537
					c0.925-12.622,0.377-25.384-2.5-37.618c-1.386-6.165-3.51-11.961-5.908-17.943c-2.308-5.986-4.446-12.075-6.153-18.32
					c-1.696-6.246-2.922-12.652-3.489-19.138c-0.621-6.514-0.242-13.021-0.246-19.309c0.029-12.691-0.497-25.432-2.193-37.92
					c-0.471-3.099-0.964-6.219-1.75-9.169c-0.379-1.474-0.84-2.916-1.398-4.149c-0.126-0.348-0.301-0.493-0.434-0.757
					c-0.156-0.334-0.264-0.356-0.264-0.356c0.112-0.079-0.34-0.162-0.558-0.247c-0.262-0.079-0.525-0.205-0.781-0.274
					c-1.883-0.301-3.928,1.362-5.446,3.882c-1.517,2.469-2.642,5.354-3.645,8.265c-3.736,11.872-5.466,24.561-6.899,37.141
					c-1.361,12.615-2.241,25.346-2.683,38.009l-4.832-0.104c0.212-22.567-0.53-45.197-2.256-67.718
					c-0.874-11.258-2.015-22.499-3.697-33.622c-0.859-5.553-1.858-11.088-3.252-16.453c-0.679-2.685-1.51-5.322-2.557-7.738
					c-0.518-1.184-1.125-2.392-1.814-3.182c-0.327-0.505-0.679-0.655-0.935-0.885c-0.109,0.01-0.186-0.066-0.273-0.11
					c-0.078,0.064-0.127,0.066-0.22,0.016l-0.157,0.044c-0.076-0.008-0.77,0.506-1.254,1.259c-0.508,0.764-1,1.625-1.425,2.564
					c-0.869,1.859-1.597,3.87-2.27,5.9c-1.33,4.081-2.432,8.29-3.458,12.52c-2.042,8.468-3.773,17.048-5.443,25.639l-9.527,51.718
					c-3.14,17.26-6.574,34.48-10.472,51.608c-3.974,17.099-8.21,34.21-14.583,50.674L1262.167,1123.843z"/>
			</g>
			<g>
				<path style="fill:#FFBC96;" d="M2012.676,1611.062c-0.722,48.933-22.045,83.126-48.763,102.835l-54.242-0.85l-13.422-0.212
					h-0.297l-63.757-145.141l-0.127-0.34l-57.131-130.062l160.815-59.721l60.019,147.307
					C2008.089,1557.457,2013.058,1586.171,2012.676,1611.062z"/>
				<path style="fill:#FFBC96;" d="M1968.161,1552.488l-422.158,47.232l-54.931-17.747c-24.866-8.034-52.098-3.091-72.516,13.217
					c-47.9,38.258-125.775,108.777-105.592,114.454c33.981,9.557,78.361-8.326,118.204-18.331
					c22.007-5.526,45.256-2.915,65.452,7.429l27.62,14.147l420.559-0.06L1968.161,1552.488z"/>
				<g>
					<path style="fill:#D28572;" d="M1323.019,1702.169c11.393-6.663,22.958-12.988,34.563-19.235
						c11.572-6.312,23.345-12.23,35.007-18.364c5.75-3.017,11.908-6.118,18.335-8.346c6.426-2.208,13.068-3.817,19.809-4.56
						c6.736-0.757,13.529-0.832,20.242-0.23c6.698,0.738,13.33,2.034,19.658,4.211l-0.652,2.404
						c-6.395-1.252-12.831-2.096-19.282-2.17c-6.436-0.213-12.874,0.225-19.185,1.297c-6.312,1.061-12.525,2.651-18.497,4.901
						c-6.033,2.118-11.595,5.128-17.561,8.118c-11.817,5.831-23.523,11.88-35.431,17.533c-11.875,5.718-23.789,11.358-35.875,16.661
						L1323.019,1702.169z"/>
					<path style="fill:#D28572;" d="M1329.162,1681.08c7.666-7.261,15.685-14.08,23.871-20.712
						c8.155-6.672,16.565-13.029,25.171-19.139c8.658-6.039,17.42-11.959,26.734-17.084c9.351-4.908,18.87-10.263,30.043-11.308
						l0.207,2.482c-4.827,1.272-9.533,3.154-14.023,5.764c-4.592,2.296-8.995,5.095-13.384,7.847
						c-8.782,5.549-17.347,11.53-25.924,17.483c-8.58,5.964-17.001,12.176-25.553,18.228c-8.498,6.123-16.967,12.318-25.554,18.359
						L1329.162,1681.08z"/>
				</g>
				
					<rect x="1831.518" y="1563.462" transform="matrix(0.9997 -0.0245 0.0245 0.9997 -37.8858 46.113)" style="fill:#D28572;" width="56.654" height="6.369"/>
				
					<rect x="1752.264" y="1348.784" transform="matrix(0.8976 -0.4408 0.4408 0.8976 -435.4457 916.1439)" style="fill:#EBEBFF;" width="4.249" height="93.276"/>
				<path style="opacity:0.2;fill:#FE5B52;" d="M2012.676,1611.062c-0.722,48.933-22.045,83.126-48.763,102.835l-54.242-0.85
					c-0.042-0.085-0.042-0.128-0.042-0.212c-1.996-7.094-3.058-14.569-3.058-22.3c0-35.128,21.833-65.116,52.713-77.179
					c9.345-3.653,19.497-5.649,30.116-5.649C1997.469,1607.707,2005.285,1608.853,2012.676,1611.062z"/>
			</g>
		</g>
		<g>
			<g>
				<rect x="1098.105" y="1661.612" style="fill:#1B1B43;" width="242.115" height="50.971"/>
				<polygon style="fill:#EBEBFF;" points="1180.226,1712.583 795.816,1712.583 685.378,1328.174 1069.788,1328.174 				"/>
			</g>
			<polygon style="fill:#1B1B43;" points="794.285,1713.023 683.264,1326.578 802.188,1326.578 802.188,1329.766 687.494,1329.766 
				797.348,1712.141 			"/>
			<polygon style="fill:#1B1B43;" points="1139.053,1572.047 1068.592,1329.766 891.389,1329.766 891.389,1326.578 
				1070.982,1326.578 1142.111,1571.156 			"/>
		</g>
		<g>
			
				<ellipse transform="matrix(0.2851 -0.9585 0.9585 0.2851 450.9684 1386.1655)" style="fill:#EBEBFF;" cx="1154.741" cy="390.763" rx="31.856" ry="31.856"/>
			
				<ellipse transform="matrix(0.2298 -0.9732 0.9732 0.2298 -751.0618 1353.1667)" style="fill:#EBEBFF;" cx="479.369" cy="1151.087" rx="41.06" ry="41.06"/>
			<g>
				<circle style="fill:#EBEBFF;" cx="2490.62" cy="1231.792" r="31.856"/>
				<path style="fill:#9192FF;" d="M2450.832,1252.648l-0.078-4.25c5.145-0.098,10.199-0.984,15.027-2.637l1.375,4.016
					C2461.91,1251.574,2456.418,1252.539,2450.832,1252.648z M2434.41,1250.426c-5.332-1.594-10.363-4-14.957-7.156l2.406-3.5
					c4.227,2.902,8.859,5.121,13.77,6.586L2434.41,1250.426z M2481.816,1242.043l-2.539-3.406c4.113-3.07,7.711-6.738,10.691-10.898
					l3.453,2.469C2490.188,1234.727,2486.285,1238.711,2481.816,1242.043z M2407.391,1231.895
					c-3.422-4.406-6.125-9.285-8.031-14.508l3.992-1.453c1.754,4.805,4.242,9.301,7.391,13.359L2407.391,1231.895z
					 M2500.867,1215.398l-4.047-1.297c1.559-4.859,2.348-9.938,2.348-15.086c0.004-1.309-0.047-2.602-0.148-3.879l4.234-0.336
					c0.109,1.395,0.168,2.805,0.164,4.223C2503.418,1204.605,2502.559,1210.117,2500.867,1215.398z M2396.18,1201.133
					c-0.031-0.695-0.043-1.398-0.047-2.105c0-4.891,0.656-9.719,1.945-14.367l4.094,1.133c-1.188,4.281-1.789,8.727-1.789,13.223
					c0.004,0.645,0.016,1.297,0.039,1.945L2396.18,1201.133z M2495.492,1180.281c-1.941-4.73-4.602-9.117-7.906-13.047l3.25-2.734
					c3.59,4.266,6.48,9.031,8.586,14.172L2495.492,1180.281z M2408.484,1171.902l-3.547-2.336
					c3.059-4.648,6.805-8.781,11.133-12.277l2.672,3.305C2414.754,1163.813,2411.305,1167.617,2408.484,1171.902z
					 M2476.074,1157.199c-4.336-2.738-9.051-4.77-14.016-6.035l1.055-4.117c5.391,1.379,10.516,3.586,15.227,6.559
					L2476.074,1157.199z M2431.945,1152.938l-1.531-3.961c5.18-2.008,10.629-3.188,16.203-3.512l0.242,4.242
					C2441.734,1150.004,2436.715,1151.09,2431.945,1152.938z"/>
			</g>
			<path style="fill:#9192FF;" d="M1736.664,484.209c-12.883,0-23.363-10.479-23.363-23.361c0-12.881,10.48-23.359,23.363-23.359
				s23.363,10.478,23.363,23.359C1760.027,473.73,1749.547,484.209,1736.664,484.209z M1736.664,441.734
				c-10.539,0-19.113,8.574-19.113,19.113c0,10.539,8.574,19.115,19.113,19.115s19.113-8.576,19.113-19.115
				C1755.777,450.309,1747.203,441.734,1736.664,441.734z"/>
		</g>
		<rect x="456.715" y="1709.289" style="fill:#1B1B43;" width="2092.66" height="6.375"/>
	</g>
</g>
</svg>
